<?xml version="1.0" encoding="utf-8"?>
<!-- Generator: Adobe Illustrator 22.0.1, SVG Export Plug-In . SVG Version: 6.00 Build 0)  -->
<svg version="1.1" id="Layer_1" xmlns="http://www.w3.org/2000/svg" xmlns:xlink="http://www.w3.org/1999/xlink" x="0px" y="0px"
	 viewBox="0 0 527.3 244.7" style="enable-background:new 0 0 527.3 244.7;" xml:space="preserve">
<style type="text/css">
	.st0{fill:#F8EA61;}
	.st1{fill:#FFFFFF;}
</style>
<polygon class="st0" points="99.1,169.5 31,169.5 31,149.2 67.1,91.8 53.3,91.8 53.3,103.2 32.3,103.2 32.3,71.6 97.9,71.6 
	97.9,91.1 62,149.3 77.8,149.3 77.8,136.2 99.1,136.2 "/>
<path class="st0" d="M188.9,169.5h-30.1l-3.5-23.9h-16.5l-3.3,23.9h-30.3v-20.3h7.2l13.5-77.7h42.6l13.7,77.7h6.7L188.9,169.5
	L188.9,169.5z M153.3,128.7l-6.1-41.1l-6.2,41.1H153.3L153.3,128.7z"/>
<path class="st1" d="M250.1,161.3h-35c-6.2,0-10.8-1.3-13.7-4c-2.9-2.6-4.4-7-4.4-13.1V98.5c0-11.4,6.3-17.1,18.9-17.1h33.2v29
	h-18.4V98h-11.9v46.9h11.9v-12.7h19.5v29.1H250.1z"/>
<polygon class="st1" points="326.8,110.4 310.5,110.4 310.5,97.7 303.4,97.7 303.4,144.8 309.5,144.8 309.5,161.3 275.6,161.3 
	275.6,144.8 281.7,144.8 281.7,97.7 274.6,97.7 274.6,110.4 258.3,110.4 258.3,81.4 326.8,81.4 "/>
<path class="st1" d="M394.1,114.8c0,9.3-6.4,13.9-19.1,13.9h-14.7v16.1h5.5v16.5h-32.5v-16.5h5.4V98h-5.4V81.4h41.9
	c12.6,0,18.9,5.5,18.9,16.5L394.1,114.8L394.1,114.8z M372.6,114.8V98h-12.3v16.9L372.6,114.8L372.6,114.8z"/>
<path class="st1" d="M454.7,143.3c0,6.5-1.4,11.1-4.3,13.9c-2.9,2.8-7.6,4.1-14.1,4.1H418c-6.5,0-11.2-1.4-14.1-4.1
	c-2.9-2.8-4.4-7.4-4.4-13.9V99.4c0-6.6,1.5-11.2,4.4-13.9c2.9-2.7,7.6-4.1,14.2-4.1h18.3c6.6,0,11.4,1.4,14.2,4.1
	c2.8,2.7,4.2,7.4,4.2,13.9v43.9H454.7z M432.9,144.8V98H421v46.9L432.9,144.8L432.9,144.8z"/>
<path class="st1" d="M510.2,61c0,5.8-1.3,9.8-3.8,12c-2.3,1.9-6.5,2.8-12.4,2.8c-6,0-10.2-0.9-12.4-2.8c-2.6-2.1-3.8-6.1-3.8-12H488
	c0,2.2,0.5,3.7,1.4,4.5s2.5,1.2,4.8,1.2s3.8-0.4,4.8-1.2c0.9-0.8,1.4-2.3,1.4-4.5H510.2L510.2,61z M527.3,161.3h-26.8V125
	l-13.1,36.3h-26.8v-16.5h5.1V98h-5.1V81.4h26.8l-0.1,35.1l13.2-35.1h26.8V98h-5.1v46.9h5.1V161.3L527.3,161.3z"/>
<polygon class="st1" points="211.9,172.1 211.9,183.5 158.9,214.1 105.9,244.7 53,214.1 0,183.5 0,132.2 19.7,132.2 19.7,172.1 
	62.8,197 105.9,221.9 149,197 192.1,172.1 "/>
<polygon class="st0" points="105.9,0 158.9,30.6 211.9,61.2 211.9,72.6 192.1,72.6 149,47.7 105.9,22.8 62.8,47.7 19.7,72.6 
	19.7,112.5 0,112.5 0,61.2 40.3,37.9 40.3,1.9 60,1.9 60,26.5 "/>
</svg>
