<?xml version="1.0" encoding="utf-8"?>
<!-- Generator: Adobe Illustrator 22.0.1, SVG Export Plug-In . SVG Version: 6.00 Build 0)  -->
<svg version="1.1" id="Layer_1" xmlns="http://www.w3.org/2000/svg" xmlns:xlink="http://www.w3.org/1999/xlink" x="0px" y="0px"
	 viewBox="0 0 207.1 239.1" style="enable-background:new 0 0 207.1 239.1;" xml:space="preserve">
<style type="text/css">
	.st0{fill-rule:evenodd;clip-rule:evenodd;fill:#FFFFFF;}
	.st1{fill-rule:evenodd;clip-rule:evenodd;fill:#F8EA61;}
	.st2{fill:#F8EA61;}
</style>
<polygon class="st0" points="207.1,168.2 207.1,179.4 155.3,209.3 103.6,239.1 51.8,209.3 0,179.4 0,129.2 19.3,129.2 19.3,168.2 
	61.4,192.5 103.6,216.9 145.7,192.5 187.8,168.2 207.1,168.2 "/>
<polygon class="st0" points="207.1,168.2 207.1,179.4 155.3,209.3 103.6,239.1 51.8,209.3 0,179.4 0,129.2 19.3,129.2 19.3,168.2 
	61.4,192.5 103.6,216.9 145.7,192.5 187.8,168.2 207.1,168.2 "/>
<polygon class="st0" points="207.1,168.2 207.1,179.4 155.3,209.3 103.6,239.1 51.8,209.3 0,179.4 0,129.2 19.3,129.2 19.3,168.2 
	61.4,192.5 103.6,216.9 145.7,192.5 187.8,168.2 207.1,168.2 "/>
<rect x="187.8" y="129.2" class="st0" width="19.3" height="45.2"/>
<polygon class="st1" points="103.6,0 155.3,29.9 207.1,59.8 207.1,70.9 187.8,70.9 145.7,46.6 103.6,22.3 61.4,46.6 19.3,70.9 
	19.3,109.9 0,109.9 0,59.8 39.4,37 39.4,1.9 58.7,1.9 58.7,25.9 103.6,0 "/>
<rect x="187.8" y="64.8" class="st1" width="19.3" height="45.2"/>
<polygon class="st2" points="93.6,165.7 27,165.7 27,145.9 62.3,89.7 48.9,89.7 48.9,100.9 28.2,100.9 28.2,69.9 92.4,69.9 
	92.4,89.1 57.3,145.9 72.7,145.9 72.7,133.1 93.6,133.1 93.6,165.7 "/>
<path class="st2" d="M181.4,165.7h-29.4l-3.4-23.3h-16.1l-3.3,23.3H99.6v-19.8h7.1l13.2-76h41.6l13.4,76h6.5V165.7L181.4,165.7z
	 M146.5,125.8l-6-40.1l-6.1,40.1H146.5L146.5,125.8z"/>
</svg>
